# Exported from ProBuilder
# http://www.procore3d.com/probuilder
# 4/3/2019 10:23:59 PM

mtllib ./Floor2.mtl
o Floor2

g Floor2
v 198 190 -19
v 193 190 -19
v 198 191 -19
v 193 191 -19
v 193 190 -19
v 193 190 -23
v 193 191 -19
v 193 191 -23
v 193 190 -23
v 198 190 -23
v 193 191 -23
v 198 191 -23
v 198 190 -23
v 198 190 -19
v 198 191 -23
v 198 191 -19
v 198 191 -19
v 193 191 -19
v 198 191 -23
v 193 191 -23
v 198 190 -23
v 193 190 -23
v 198 190 -19
v 193 190 -19

vn 0 0 1
vn 0 0 1
vn 0 0 1
vn 0 0 1
vn -1 0 0
vn -1 0 0
vn -1 0 0
vn -1 0 0
vn 0 0 -1
vn 0 0 -1
vn 0 0 -1
vn 0 0 -1
vn 1 0 0
vn 1 0 0
vn 1 0 0
vn 1 0 0
vn 0 1 0
vn 0 1 0
vn 0 1 0
vn 0 1 0
vn 0 -1 0
vn 0 -1 0
vn 0 -1 0
vn 0 -1 0

vt 0.5 0.4
vt 0 0.4
vt 0.5 0.5
vt 0 0.5
vt 0.5000001 0.5034957
vt 0.1000001 0.5034957
vt 0.5000001 0.6034957
vt 0.1000001 0.6034957
vt 1 0.4
vt 0.5 0.4
vt 1 0.5
vt 0.5 0.5
vt 0.9 0.5034957
vt 0.5000001 0.5034957
vt 0.9 0.6034957
vt 0.5000001 0.6034957
vt 0.5 0.4
vt 1 0.4
vt 0.5 0
vt 1 0
vt 0.5 0
vt 0 0
vt 0.5 0.4
vt 0 0.4

g Floor2
usemtl Default_Prototype
f 3/3/3 4/4/4 2/2/2 1/1/1
f 7/7/7 8/8/8 6/6/6 5/5/5
f 11/11/11 12/12/12 10/10/10 9/9/9
f 15/15/15 16/16/16 14/14/14 13/13/13
f 19/19/19 20/20/20 18/18/18 17/17/17
f 23/23/23 24/24/24 22/22/22 21/21/21

