# This file uses centimeters as units for non-parametric coordinates.

mtllib World1_Mission3_Face2.mtl
g default
v -294.000000 -1.000000 23.000000
v -282.000000 -1.000000 23.000000
v -294.000000 0.000000 23.000000
v -282.000000 0.000000 23.000000
v -294.000000 0.000000 20.000000
v -282.000000 0.000000 20.000000
v -294.000000 -1.000000 20.000000
v -282.000000 -1.000000 20.000000
vt 0.411459 0.166857
vt 0.411460 0.092910
vt 0.418341 0.092910
vt 0.418341 0.166857
vt 0.438719 0.092909
vt 0.438719 0.166857
vt 0.445634 0.092909
vt 0.445634 0.166857
vt 0.438719 0.012669
vt 0.438719 0.086845
vt 0.418341 0.086845
vt 0.418341 0.012669
vt 0.438719 0.173384
vt 0.418341 0.173384
vn 0.000000 0.000000 1.000000
vn 0.000000 0.000000 1.000000
vn 0.000000 0.000000 1.000000
vn 0.000000 0.000000 1.000000
vn 0.000000 1.000000 0.000000
vn 0.000000 1.000000 0.000000
vn 0.000000 1.000000 0.000000
vn 0.000000 1.000000 0.000000
vn 0.000000 0.000000 -1.000000
vn 0.000000 0.000000 -1.000000
vn 0.000000 0.000000 -1.000000
vn 0.000000 0.000000 -1.000000
vn 0.000000 -1.000000 0.000000
vn 0.000000 -1.000000 0.000000
vn 0.000000 -1.000000 0.000000
vn 0.000000 -1.000000 0.000000
vn 1.000000 0.000000 0.000000
vn 1.000000 0.000000 0.000000
vn 1.000000 0.000000 0.000000
vn 1.000000 0.000000 0.000000
vn -1.000000 0.000000 0.000000
vn -1.000000 0.000000 0.000000
vn -1.000000 0.000000 0.000000
vn -1.000000 0.000000 0.000000
s off
g polySurface9 pCube15
usemtl initialShadingGroup
f 1/1/1 2/2/2 4/3/3 3/4/4
f 3/4/5 4/3/6 6/5/7 5/6/8
f 5/6/9 6/5/10 8/7/11 7/8/12
f 7/9/13 8/10/14 2/11/15 1/12/16
f 2/11/17 8/10/18 6/5/19 4/3/20
f 7/13/21 1/14/22 3/4/23 5/6/24
