# Blender v2.80 (sub 74) OBJ File: 'Map1.blend'
# www.blender.org
mtllib 001B_pt2_-_The_Void_Wall.mtl
o Tower_Inner_Wall_Cube.027
v 6.006134 44.946445 -121.982155
v 6.006134 41.946445 -121.982155
v 6.006134 44.946445 -118.024948
v 6.006134 44.946445 -125.024948
v 6.006134 41.946445 -118.024948
v 6.006134 41.946445 -125.024948
vt 0.442059 0.654413
vt 0.442060 0.274233
vt 0.943545 0.274232
vt 0.943544 0.654413
vt 0.056455 0.654413
vt 0.056457 0.274232
vn 1.0000 0.0000 0.0000
usemtl Material
s off
f 2/1/1 1/2/1 3/3/1 5/4/1
f 6/5/1 4/6/1 1/2/1 2/1/1
